<svg width="232" height="203" viewBox="0 0 232 203" fill="none" xmlns="http://www.w3.org/2000/svg">
<path d="M108.819 157.945C108.719 157.545 108.419 157.145 107.919 157.045C101.119 156.145 94.9188 158.245 90.9188 162.645C88.3188 165.645 86.8188 169.645 86.6188 173.945C86.5188 173.845 86.5188 173.745 86.4188 173.645C83.3188 169.445 83.3188 162.545 86.4188 158.345C86.7188 157.945 86.6188 157.245 86.2188 156.945C85.8188 156.645 85.1188 156.745 84.8188 157.145C84.1188 158.045 83.6188 159.045 83.2188 160.145C82.9188 156.145 81.4188 152.645 79.0188 149.845C75.1188 145.345 68.9188 143.245 62.0188 144.245C61.6188 144.345 61.3188 144.745 61.2188 145.145C60.4188 151.145 61.8188 156.645 65.3188 160.545C68.6188 164.345 73.5188 166.445 79.1188 166.445C80.1188 166.445 81.2188 166.345 82.2188 166.245C82.2188 169.445 83.1188 172.545 84.9188 174.945C88.0188 179.145 88.0188 186.045 84.9188 190.245C84.6188 190.645 84.7188 191.345 85.1188 191.645C85.3188 191.745 85.5188 191.845 85.7188 191.845C86.0188 191.845 86.3188 191.745 86.5188 191.445C89.0188 188.145 89.7188 183.345 88.8188 179.145C89.5188 179.245 90.2188 179.245 90.9188 179.245C96.5188 179.245 101.419 177.145 104.719 173.345C108.119 169.345 109.619 163.945 108.819 157.945ZM79.1188 164.445C74.1188 164.445 69.8188 162.645 66.8188 159.245C63.9188 155.945 62.6188 151.345 63.1188 146.145C69.0188 145.545 74.2188 147.445 77.5188 151.245C80.1188 154.245 81.4188 158.245 81.3188 162.645L71.8188 153.145C71.4188 152.745 70.8188 152.745 70.4188 153.145C70.0188 153.545 70.0188 154.145 70.4188 154.545L80.2188 164.345C79.8188 164.345 79.4188 164.445 79.1188 164.445ZM103.219 172.045C100.119 175.545 95.4188 177.445 90.1188 177.145L98.9188 168.345C99.3188 167.945 99.3188 167.345 98.9188 166.945C98.5188 166.545 97.9188 166.545 97.5188 166.945L88.7188 175.745C88.5188 171.145 89.8188 167.045 92.5188 164.045C95.8188 160.245 101.019 158.345 106.919 158.945C107.419 164.045 106.119 168.645 103.219 172.045Z" fill="#002244"/>
<path d="M128.591 156.273C129.184 156.178 129.515 155.719 129.42 155.127C129.325 154.534 128.867 154.203 128.275 154.298C120.376 155.565 114.889 163.029 116.172 171.027C116.267 171.619 116.725 171.951 117.318 171.855C117.91 171.76 118.242 171.302 118.147 170.71C117.038 163.798 121.68 157.382 128.591 156.273Z" fill="#002244"/>
<path d="M129.257 160.42C129.849 160.325 130.181 159.866 130.086 159.274C129.991 158.681 129.532 158.35 128.94 158.445C123.312 159.348 119.416 164.733 120.319 170.361C120.414 170.954 120.872 171.285 121.465 171.19C122.057 171.095 122.389 170.637 122.294 170.044C121.549 165.404 124.616 161.164 129.257 160.42Z" fill="#002244"/>
<path d="M129.653 162.888C126.395 163.411 124.239 166.39 124.762 169.648C124.857 170.241 125.315 170.572 125.908 170.477C126.5 170.382 126.832 169.924 126.737 169.331C126.388 167.159 127.896 165.196 129.97 164.863C130.562 164.768 130.894 164.309 130.799 163.717C130.704 163.125 130.147 162.809 129.653 162.888Z" fill="#002244"/>
<path d="M158.585 190.453L152.858 191.372L150.577 177.153C152.968 170.592 151.14 162.985 145.612 158.201C145.383 158.035 145.169 157.968 144.857 157.917C144.561 157.964 144.281 158.11 144.115 158.34L135.162 170.714L131.152 167.813C130.694 167.481 130.101 167.576 129.77 168.035C129.438 168.493 129.533 169.085 129.991 169.417L134.002 172.318L124.966 184.807C124.8 185.037 124.749 185.349 124.797 185.645C124.844 185.941 124.975 186.123 125.302 186.273C128.775 188.349 132.946 189.097 136.896 188.464C139.167 188.099 141.276 187.356 143.207 186.134L144.268 192.75L138.541 193.669C137.949 193.764 137.617 194.222 137.712 194.814L138.584 200.245C138.679 200.837 139.137 201.169 139.729 201.074L159.773 197.858C160.366 197.763 160.697 197.305 160.602 196.712L159.731 191.282C159.636 190.689 159.079 190.374 158.585 190.453ZM136.579 186.489C133.42 186.996 130.102 186.515 127.233 185.051L145.056 160.417C149.402 164.783 150.614 171.071 148.558 176.566C146.937 180.978 143.569 183.342 143.387 183.472C141.421 185.104 139.048 186.093 136.579 186.489ZM149.062 180.334L150.883 191.688L146.342 192.417L145.122 184.814C147.104 183.281 148.813 180.677 149.062 180.334ZM158.469 196.042L140.4 198.941L139.846 195.485L157.914 192.586L158.469 196.042Z" fill="#002244"/>
<path d="M137 45.925C134.7 45.925 132.6 46.825 130.9 48.425C130.5 48.825 130.5 49.425 130.9 49.825C131.1 50.025 131.4 50.125 131.6 50.125C131.9 50.125 132.1 50.025 132.3 49.825C133.5 48.625 135.2 47.925 137 47.925C138.8 47.925 140.4 48.625 141.7 49.825C142.1 50.225 142.7 50.225 143.1 49.825C143.5 49.425 143.5 48.825 143.1 48.425C141.4 46.825 139.3 45.925 137 45.925Z" fill="#002244"/>
<path d="M137 50.825C134.9 50.825 133.3 52.525 133.3 54.525C133.3 56.625 135 58.225 137 58.225C139.1 58.225 140.7 56.525 140.7 54.525C140.7 52.425 139.1 50.825 137 50.825ZM137 56.225C136 56.225 135.3 55.425 135.3 54.525C135.3 53.625 136.1 52.825 137 52.825C138 52.825 138.7 53.625 138.7 54.525C138.7 55.425 138 56.225 137 56.225Z" fill="#002244"/>
<path d="M137 39.725C133.1 39.725 129.4 41.225 126.6 44.025C126.2 44.425 126.2 45.025 126.6 45.425C127 45.825 127.6 45.825 128 45.425C130.4 43.025 133.6 41.725 137 41.725C140.4 41.725 143.6 43.025 146 45.425C146.2 45.625 146.5 45.725 146.7 45.725C147 45.725 147.2 45.625 147.4 45.425C147.8 45.025 147.8 44.425 147.4 44.025C144.6 41.225 140.9 39.725 137 39.725Z" fill="#002244"/>
<path d="M137 33.425C131.4 33.425 126.1 35.625 122.1 39.625C121.7 40.025 121.7 40.625 122.1 41.025C122.5 41.425 123.1 41.425 123.5 41.025C127.1 37.425 131.9 35.425 137 35.425C142.1 35.425 146.9 37.425 150.5 41.025C150.7 41.225 151 41.325 151.2 41.325C151.5 41.325 151.7 41.225 151.9 41.025C152.3 40.625 152.3 40.025 151.9 39.625C147.9 35.625 142.6 33.425 137 33.425Z" fill="#002244"/>
<path d="M117.6 35.225C117.2 35.625 117.2 36.225 117.6 36.625C118 37.025 118.6 37.025 119 36.625C128.9 26.725 145 26.725 154.9 36.625C155.1 36.825 155.4 36.925 155.6 36.925C155.9 36.925 156.1 36.825 156.3 36.625C156.7 36.225 156.7 35.625 156.3 35.225C145.7 24.525 128.3 24.525 117.6 35.225Z" fill="#002244"/>
<path d="M160.7 30.825C147.6 17.725 126.4 17.725 113.3 30.825C112.9 31.225 112.9 31.825 113.3 32.225C113.7 32.625 114.3 32.625 114.7 32.225C127 19.925 147 19.925 159.3 32.225C159.5 32.425 159.8 32.525 160 32.525C160.2 32.525 160.5 32.425 160.7 32.225C161.1 31.825 161.1 31.225 160.7 30.825Z" fill="#002244"/>
<path d="M32.7646 165.313L38.167 154.358C38.3659 153.9 38.2497 153.413 37.865 153.094C37.383 152.798 35.6728 151.664 35.0935 151.391C34.6347 151.192 34.1484 151.309 33.8291 151.693L26.5219 161.561L15.5668 156.159C15.1081 155.96 14.6218 156.076 14.3024 156.461C14.0063 156.943 12.8959 158.75 12.5998 159.232C12.4009 159.691 12.5171 160.177 12.9018 160.497L22.6724 167.827L17.2468 178.685C17.0479 179.144 17.1641 179.63 17.5488 179.949C18.0541 180.343 19.8383 181.356 20.3203 181.652C20.538 181.703 20.7558 181.754 20.9503 181.707C21.1449 181.661 21.4134 181.494 21.4874 181.373L26.4808 174.731L27.756 201.158C27.775 201.668 28.3034 202.158 28.813 202.139C28.9102 202.116 28.9102 202.116 29.0075 202.093C29.4938 201.977 29.8132 201.592 29.7942 201.082L29.3712 192.856L37.8331 190.834L41.174 198.364C41.3875 198.827 41.8462 199.026 42.3326 198.91C42.4298 198.886 42.4298 198.886 42.5271 198.863C42.9902 198.65 43.263 198.071 43.0264 197.51L32.2194 173.36L39.6757 177.028C40.1344 177.227 40.6207 177.111 40.9401 176.726C41.2362 176.244 42.3466 174.437 42.6427 173.955C42.8416 173.496 42.7254 173.01 42.3407 172.69L32.7646 165.313ZM37.1274 188.741L29.3463 190.6L28.4245 172.108L28.8919 171.482L29.5916 171.829L37.1274 188.741ZM39.9658 174.8L29.0108 169.397C28.552 169.198 28.0657 169.315 27.7463 169.699L20.5132 179.447C20.1517 179.225 19.7902 179.003 19.4287 178.781L24.8311 167.825C25.03 167.367 24.9138 166.88 24.5291 166.561L14.7585 159.231C14.9805 158.869 15.2026 158.508 15.3507 158.267L26.3058 163.669C26.7645 163.868 27.2508 163.752 27.5702 163.367L34.9006 153.596C35.2621 153.818 35.6236 154.041 35.9851 154.263L30.5826 165.218C30.3838 165.676 30.5 166.163 30.8847 166.482L40.6553 173.813C40.41 174.077 40.1879 174.438 39.9658 174.8Z" fill="#002244"/>
<path d="M68.9819 100.744C67.9777 93.9179 64.2207 88.305 59.0293 84.6213C54.0795 81.2053 48.0763 79.5616 41.7444 80.493C35.4126 81.4245 30.0382 84.742 26.3662 89.3253C22.4701 94.4469 20.4888 100.904 21.493 107.73C22.4973 114.557 26.2687 120.269 31.4456 123.854C36.3955 127.27 42.3986 128.913 48.7305 127.982C55.0623 127.05 60.3378 123.747 64.0098 119.164C68.0049 114.028 69.9862 107.571 68.9819 100.744ZM67.0032 101.036C67.8765 106.972 66.288 112.663 63.0117 117.188C61.3384 116.121 59.4964 115.28 57.6835 114.637C58.1635 111.029 58.1604 106.885 57.5054 102.433C56.865 98.0796 55.6747 94.1106 54.1614 90.6945C55.8112 89.5421 57.2341 88.2209 58.5289 86.7164C62.9696 90.1062 66.13 95.0994 67.0032 101.036ZM34.9482 105.751C34.3515 101.695 34.392 97.8479 34.8022 94.4521C37.4211 95.0776 40.1651 95.1793 42.8655 94.9842L45.6453 113.881C42.9886 114.373 40.4047 115.359 38.0769 116.712C36.5927 113.494 35.5449 109.807 34.9482 105.751ZM43.0394 82.4251C45.9959 82.5967 49.162 85.5675 51.5425 90.069C49.398 91.2941 47.0119 92.2516 44.5531 92.7144L43.0394 82.4251ZM41.0607 82.7162L42.5598 92.9065C40.0719 93.1715 37.5257 93.0406 35.1047 92.386C36.1025 87.4887 38.2789 83.7319 41.0607 82.7162ZM45.9364 115.86L47.4355 126.05C44.4791 125.878 41.313 122.907 38.9325 118.406C41.077 117.181 43.4776 116.322 45.9364 115.86ZM49.4142 125.759L47.9151 115.568C50.403 115.303 52.9492 115.434 55.3703 116.089C54.3724 120.986 52.196 124.743 49.4142 125.759ZM47.624 113.59L44.8296 94.5942C47.4863 94.1023 50.0702 93.1157 52.3981 91.7625C53.8677 94.8818 54.93 98.6675 55.5122 102.625C56.1089 106.681 56.0684 110.528 55.6582 113.924C53.0539 113.397 50.3098 113.296 47.624 113.59ZM56.8412 85.5497C55.7151 86.8271 54.5599 87.9068 53.1923 88.9166C51.6674 86.1086 49.9185 83.839 47.9891 82.4045C51.1871 82.8438 54.1756 83.9203 56.8412 85.5497ZM33.2074 91.8565C31.6215 91.3823 30.0909 90.5967 28.7436 89.6831C30.8269 87.3551 33.3642 85.3646 36.3148 84.1219C34.8949 86.1502 33.8591 88.7284 33.2074 91.8565ZM23.4717 107.439C22.5985 101.503 24.187 95.8115 27.4633 91.2865C29.1365 92.3543 30.9785 93.1952 32.7914 93.8382C32.3114 97.4465 32.3146 101.59 32.9695 106.042C33.6099 110.395 34.8002 114.364 36.3135 117.78C34.6637 118.933 33.2408 120.254 31.946 121.759C27.5054 118.369 24.345 113.376 23.4717 107.439ZM33.6338 122.925C34.7598 121.648 35.915 120.568 37.2826 119.558C38.8075 122.366 40.5565 124.636 42.4858 126.07C39.2878 125.631 36.2993 124.555 33.6338 122.925ZM57.2675 116.618C58.868 117.192 60.2851 117.893 61.7314 118.792C59.648 121.12 57.1107 123.11 54.1601 124.353C55.5801 122.325 56.6159 119.747 57.2675 116.618Z" fill="#002244"/>
<path d="M94 44.8C93.6 44.8 93.2 44.8 92.9 44.9C91.2 40.7 87.2 38 82.6 38C79.3 38 76.2 39.5 74.1 41.9C73 41.4 71.8 41.1 70.5 41.1C66.3 41.1 62.7 44.1 62 48.2C58.5 49.3 56 52.6 56 56.3C56 61 59.8 64.8 64.5 64.8H94C99.5 64.8 104 60.3 104 54.8C104 49.3 99.5 44.8 94 44.8ZM94 62.8H64.5C60.9 62.8 58 59.9 58 56.3C58 53.2 60.2 50.6 63.2 49.9C63.6 49.8 64 49.4 64 49C64.3 45.6 67.1 43 70.6 43C71.8 43 72.9 43.3 74 43.9C74.4 44.2 75 44 75.3 43.6C77 41.2 79.8 39.8 82.7 39.8C86.7 39.8 90.2 42.3 91.4 46.1C91.6 46.6 92 46.9 92.6 46.8C93.1 46.7 93.7 46.6 94.2 46.6C98.6 46.6 102.2 50.2 102.2 54.6C102 59.2 98.4 62.8 94 62.8Z" fill="#002244"/>
<path d="M219.953 130.372C219.389 130.166 218.826 129.96 218.228 129.847C211.38 128.192 204.299 131.244 200.894 137.345C198.724 141.236 198.185 145.618 199.457 149.704C200.934 154.398 200.795 159.139 199.283 163.271L197.22 168.906C196.464 170.971 197.535 173.281 199.601 174.037L207.301 176.856C209.367 177.612 211.676 176.541 212.433 174.475L214.495 168.841C216.077 164.521 218.998 160.905 222.702 158.64C225.731 156.767 228.155 153.927 229.392 150.547C232.349 142.471 228.123 133.363 219.953 130.372ZM210.554 173.787C210.176 174.82 209.022 175.356 207.989 174.978L200.289 172.159C199.256 171.781 198.72 170.626 199.098 169.593L200.473 165.837L211.93 170.031L210.554 173.787ZM221.706 156.998C217.617 159.441 214.464 163.398 212.652 168.059L207.956 166.34C209.776 162.534 212.184 159.156 214.974 156.77C216.986 155.057 218.606 152.668 219.603 149.945C219.809 149.381 219.571 148.868 219.007 148.662C218.444 148.456 217.931 148.694 217.725 149.257C216.831 151.699 215.442 153.746 213.687 155.34C211.967 156.84 210.331 158.69 208.942 160.738C209.204 158.278 209.15 155.809 208.804 153.552C208.459 151.296 208.755 148.742 209.649 146.301C209.855 145.737 209.617 145.224 209.054 145.018C208.49 144.811 207.977 145.05 207.771 145.613C206.739 148.43 206.468 151.206 206.899 153.813C207.489 157.437 207.146 161.571 206.078 165.653L201.383 163.934C203.033 159.426 203.087 154.334 201.56 149.196C200.432 145.589 200.893 141.711 202.763 138.349C205.765 133.058 211.982 130.329 217.951 131.769C218.232 131.872 218.796 132.078 219.265 132.25C226.402 134.863 230.093 142.816 227.48 149.953C226.38 152.958 224.315 155.397 221.706 156.998Z" fill="#002244"/>
<path d="M211 80.1C211 72.9 205.2 67.1 198 67.1C197.4 67.1 197 67.5 197 68.1C197 68.7 197.4 69.1 198 69.1C204 69.1 209 74 209 80.1C209 80.7 209.4 81.1 210 81.1C210.6 81.1 211 80.6 211 80.1Z" fill="#002244"/>
<path d="M225.9 97.6L214.9 86.6C215.7 84.6 216.2 82.4 216.2 80C216.1 70.1 208 62 198.1 62C188.1 62 180 70.1 180 80.1C180 90.1 188.1 98.2 198.1 98.2C200.4 98.2 202.6 97.7 204.7 96.9L215.7 107.9C217.1 109.3 218.9 110 220.8 110C222.7 110 224.6 109.2 225.9 107.9C227.3 106.5 228 104.7 228 102.8C228 100.8 227.2 99 225.9 97.6ZM198.1 96.1C189.2 96.1 182 88.9 182 80.1C182 71.2 189.2 64 198.1 64C207 64 214.2 71.2 214.2 80.1C214.2 82.9 213.5 85.4 212.3 87.7C209.5 92.7 204.2 96.1 198.1 96.1ZM224.5 106.5C223.5 107.5 222.2 108 220.8 108C219.4 108 218.1 107.5 217.1 106.5L206.6 96C210.6 94.3 213.7 89.1 214 88.6L224.5 99C225.5 100 226 101.3 226 102.7C226 104.2 225.5 105.5 224.5 106.5Z" fill="#002244"/>
<path d="M99.5996 102.146C95.8108 102.437 92.9574 105.765 93.2485 109.554C93.5396 113.343 96.8679 116.196 100.657 115.905C104.446 115.614 107.299 112.286 107.008 108.497C106.617 104.716 103.289 101.862 99.5996 102.146ZM100.496 113.811C97.8038 114.018 95.4418 111.993 95.2349 109.301C95.0281 106.609 97.0531 104.247 99.7452 104.04C102.437 103.833 104.799 105.858 105.006 108.55C105.213 111.243 103.088 113.612 100.496 113.811Z" fill="#002244"/>
<path d="M113.558 104.985L110.322 104.632C110.084 104.149 109.846 103.665 109.616 103.282L111.212 100.552C111.48 100.13 111.342 99.6389 111.012 99.2631L108.006 96.6858C107.684 96.4096 107.078 96.3559 106.702 96.6857L104.248 98.6795C103.734 98.5184 103.32 98.3497 102.806 98.1886L101.963 95.0439C101.825 94.553 101.403 94.2846 100.904 94.3229L96.916 94.6293C96.4174 94.6676 96.0416 94.9974 95.9802 95.5035L95.7268 98.7324C95.2436 98.9702 94.7604 99.2079 94.3769 99.4379L91.6466 97.8424C91.2248 97.5739 90.7339 97.7119 90.3581 98.0417L87.7808 101.048C87.5047 101.37 87.4509 101.976 87.7807 102.352L89.7746 104.806C89.6134 105.32 89.4447 105.734 89.2836 106.248L86.1389 107.091C85.6481 107.229 85.3796 107.651 85.4179 108.15L85.7243 112.138C85.7626 112.637 86.0924 113.012 86.5986 113.074L89.8275 113.327C90.0652 113.81 90.3029 114.294 90.5329 114.677L88.9374 117.407C88.6689 117.829 88.8069 118.32 89.1367 118.696L92.143 121.273C92.465 121.549 93.0709 121.603 93.4468 121.273L95.9013 119.279C96.4151 119.441 96.8293 119.609 97.3431 119.77L98.1865 122.915C98.3245 123.406 98.7463 123.674 99.2448 123.636L103.233 123.33C103.732 123.291 104.107 122.962 104.169 122.455L104.522 119.219C105.005 118.981 105.488 118.743 105.872 118.513L108.602 120.109C109.024 120.377 109.515 120.239 109.891 119.91L112.468 116.903C112.744 116.581 112.798 115.975 112.468 115.6L110.474 113.145C110.635 112.631 110.804 112.217 110.965 111.703L114.11 110.86C114.601 110.722 114.869 110.3 114.831 109.802L114.524 105.813C114.394 105.422 114.064 105.046 113.558 104.985ZM112.676 109.165L109.823 109.885C109.431 110.016 109.148 110.238 109.079 110.645C108.94 111.458 108.695 112.179 108.35 112.907C108.173 113.222 108.212 113.72 108.434 114.004L110.313 116.267L108.84 117.984L106.317 116.473C106.002 116.297 105.604 116.328 105.22 116.558C104.553 117.01 103.878 117.363 103.195 117.616C102.804 117.746 102.528 118.068 102.559 118.467L102.183 121.405L99.8893 121.581L99.1686 118.728C99.0382 118.336 98.8158 118.053 98.4094 117.984C97.5964 117.845 96.8755 117.6 96.1469 117.255C95.8324 117.078 95.3339 117.117 95.0501 117.339L92.7874 119.218L91.0695 117.745L92.5807 115.222C92.7571 114.907 92.7265 114.509 92.4964 114.125C92.044 113.458 91.6912 112.783 91.4305 112.001C91.3002 111.609 90.9781 111.333 90.5793 111.364L87.6495 111.087L87.4733 108.794L90.3265 108.074C90.7176 107.943 91.0014 107.721 91.0705 107.314C91.2086 106.501 91.4541 105.78 91.807 105.152C91.9834 104.837 91.9451 104.339 91.7227 104.055L89.8439 101.792L91.3166 100.074L93.8398 101.585C94.1542 101.762 94.553 101.731 94.9365 101.501C95.6039 101.049 96.2788 100.696 97.0611 100.435C97.4523 100.305 97.7284 99.9828 97.6978 99.584L97.9742 96.6542L100.267 96.478L100.988 99.3312C101.118 99.7223 101.341 100.006 101.747 100.075C102.56 100.213 103.281 100.459 103.91 100.812C104.225 100.988 104.723 100.95 105.007 100.727L107.27 98.8486L108.987 100.321L107.476 102.844C107.3 103.159 107.331 103.558 107.561 103.941C108.013 104.609 108.366 105.283 108.619 105.966C108.749 106.357 109.071 106.633 109.47 106.603L112.4 106.879L112.576 109.172L112.676 109.165Z" fill="#002244"/>
<path d="M118.331 80.9486C117.832 80.9869 117.242 81.1326 116.751 81.2706C115.186 81.792 113.875 82.996 113.184 84.4532C112.494 85.9103 112.325 87.6283 112.946 89.1853C113.851 91.8238 116.489 93.5267 119.281 93.3122C119.779 93.2739 120.37 93.1282 120.861 92.9902C124.082 91.8401 125.816 88.2968 124.666 85.0755C123.761 82.437 121.123 80.7341 118.331 80.9486ZM120.217 91.1341C119.826 91.2645 119.526 91.2874 119.128 91.3181C117.233 91.4636 115.439 90.2977 114.802 88.5413C114.419 87.4675 114.534 86.3554 114.956 85.32C115.477 84.277 116.321 83.5101 117.395 83.1267C117.786 82.9964 118.085 82.9734 118.484 82.9427C120.379 82.7972 122.173 83.9632 122.81 85.7196C123.584 87.9668 122.364 90.3673 120.217 91.1341Z" fill="#002244"/>
<path d="M131.737 84.4319L130.579 81.1108C130.441 80.62 129.92 80.3591 129.529 80.4895L126.752 80.9034C126.522 80.5199 126.2 80.2438 125.878 79.9676L126.576 77.3063C126.737 76.7925 126.5 76.3092 126.085 76.1405L122.857 74.5832C122.442 74.4145 121.852 74.5601 121.576 74.8822L119.942 77.114C119.535 77.0449 119.137 77.0755 118.63 77.0141L117.242 74.6134C117.012 74.2299 116.491 73.9691 116.008 74.2068L112.687 75.3646C112.196 75.5026 111.935 76.0241 112.065 76.4153L112.479 79.1917C112.096 79.4218 111.819 79.7439 111.543 80.066L108.882 79.3678C108.368 79.2067 107.885 79.4444 107.716 79.8586L106.159 83.0873C105.99 83.5015 106.136 84.092 106.458 84.3682L108.69 86.002C108.621 86.4085 108.651 86.8073 108.59 87.3135L106.189 88.7015C105.806 88.9316 105.545 89.4531 105.783 89.9363L106.94 93.2574C107.078 93.7482 107.6 94.009 107.991 93.8787L110.767 93.4648C110.998 93.8483 111.32 94.1244 111.642 94.4006L110.944 97.0619C110.782 97.5757 111.02 98.0589 111.434 98.2277L114.663 99.7849C115.077 99.9537 115.668 99.808 115.944 99.4859L117.67 97.1469C118.076 97.2159 118.475 97.1853 118.981 97.2467L120.369 99.6474C120.599 100.031 120.914 100.207 121.313 100.177C121.412 100.169 121.512 100.161 121.612 100.154L124.933 98.9959C125.424 98.8579 125.684 98.3364 125.554 97.9452L125.14 95.1688C125.524 94.9387 125.8 94.6166 126.076 94.2945L128.737 94.9927C129.251 95.1538 129.734 94.9161 129.903 94.502L131.46 91.2732C131.629 90.8591 131.483 90.2685 131.161 89.9923L128.723 88.2741C128.792 87.8676 128.761 87.4688 128.822 86.9626L131.223 85.5746C131.714 85.4366 131.875 84.9228 131.737 84.4319ZM127.312 85.5743C127.028 85.7967 126.752 86.1188 126.782 86.5176C126.836 87.2155 126.79 87.9211 126.636 88.5347C126.567 88.9412 126.698 89.3323 127.012 89.5088L129.136 91.0506L128.362 92.7148L125.9 92.0013C125.493 91.9322 125.102 92.0626 124.918 92.2773C124.458 92.8141 123.99 93.2513 123.415 93.5964C123.131 93.8187 122.962 94.2329 122.985 94.532L123.384 97.109L121.635 97.8452L120.362 95.6362C120.14 95.3524 119.817 95.0763 119.419 95.1069C118.721 95.1605 118.015 95.1144 117.402 94.961C117.302 94.9687 117.202 94.9763 117.102 94.984C116.803 95.007 116.512 95.1296 116.335 95.4441L114.794 97.5684L113.129 96.7936L113.843 94.3317C113.912 93.9253 113.782 93.5341 113.567 93.35C113.03 92.8898 112.593 92.4219 112.248 91.8466C112.025 91.5628 111.611 91.3941 111.312 91.417L108.735 91.8156L108.091 89.9595L110.3 88.6866C110.584 88.4642 110.86 88.1421 110.829 87.7432C110.776 87.0453 110.822 86.3397 110.975 85.7261C111.044 85.3196 110.914 84.9285 110.6 84.7521L108.475 83.2103L109.25 81.546L111.712 82.2595C112.118 82.3286 112.51 82.1982 112.694 81.9835C113.154 81.4467 113.622 81.0095 114.197 80.6645C114.481 80.4421 114.65 80.0279 114.627 79.7288L114.228 77.1518L115.984 76.5154L117.25 78.6246C117.472 78.9084 117.794 79.1846 118.193 79.1539C118.891 79.1003 119.597 79.1464 120.21 79.2998C120.617 79.3689 121.008 79.2385 121.184 78.9241L122.726 76.7998L124.39 77.5745L123.677 80.0364C123.608 80.4429 123.738 80.8341 123.953 81.0182C124.49 81.4784 124.927 81.9463 125.272 82.5216C125.494 82.8054 125.908 82.9741 126.207 82.9511L128.784 82.5526L129.421 84.309L127.312 85.5743Z" fill="#002244"/>
<path d="M217.3 11.7H198.7C197 11.7 195.7 13 195.7 14.7V33.2C195.7 34.9 197 36.2 198.7 36.2H217.2C218.9 36.2 220.2 34.9 220.2 33.2V14.7C220.3 13.1 218.9 11.7 217.3 11.7ZM218.3 33.3C218.3 33.9 217.9 34.3 217.3 34.3H198.7C198.1 34.3 197.7 33.9 197.7 33.3V14.7C197.7 14.1 198.1 13.7 198.7 13.7H217.2C217.8 13.7 218.2 14.1 218.2 14.7V33.3H218.3Z" fill="#002244"/>
<path d="M231 19.2C231.6 19.2 232 18.8 232 18.2C232 17.6 231.6 17.2 231 17.2H225.2V13.4H231C231.6 13.4 232 13 232 12.4C232 11.8 231.6 11.4 231 11.4H225.2V9.8C225.2 8.1 223.9 6.8 222.2 6.8H220.6V1C220.6 0.4 220.2 0 219.6 0C219 0 218.6 0.4 218.6 1V6.8H214.8V1C214.8 0.4 214.4 0 213.8 0C213.2 0 212.8 0.4 212.8 1V6.8H209V1C209 0.4 208.6 0 208 0C207.4 0 207 0.4 207 1V6.8H203.2V1C203.2 0.4 202.8 0 202.2 0C201.6 0 201.2 0.4 201.2 1V6.8H197.4V1C197.4 0.4 197 0 196.4 0C195.8 0 195.4 0.4 195.4 1V6.8H193.8C192.1 6.8 190.8 8.1 190.8 9.8V11.4H185C184.4 11.4 184 11.8 184 12.4C184 13 184.4 13.4 185 13.4H190.8V17.2H185C184.4 17.2 184 17.6 184 18.2C184 18.8 184.4 19.2 185 19.2H190.8V23H185C184.4 23 184 23.4 184 24C184 24.6 184.4 25 185 25H190.8V28.8H185C184.4 28.8 184 29.2 184 29.8C184 30.4 184.4 30.8 185 30.8H190.8V34.6H185C184.4 34.6 184 35 184 35.6C184 36.2 184.4 36.6 185 36.6H190.8V38.2C190.8 39.9 192.1 41.2 193.8 41.2H195.4V47C195.4 47.6 195.8 48 196.4 48C197 48 197.4 47.6 197.4 47V41.2H201.2V47C201.2 47.6 201.6 48 202.2 48C202.8 48 203.2 47.6 203.2 47V41.2H207V47C207 47.6 207.4 48 208 48C208.6 48 209 47.6 209 47V41.2H212.8V47C212.8 47.6 213.2 48 213.8 48C214.4 48 214.8 47.6 214.8 47V41.2H218.6V47C218.6 47.6 219 48 219.6 48C220.2 48 220.6 47.6 220.6 47V41.2H222.2C223.9 41.2 225.2 39.9 225.2 38.2V36.6H231C231.6 36.6 232 36.2 232 35.6C232 35 231.6 34.6 231 34.6H225.2V30.8H231C231.6 30.8 232 30.4 232 29.8C232 29.2 231.6 28.8 231 28.8H225.2V25H231C231.6 25 232 24.6 232 24C232 23.4 231.6 23 231 23H225.2V19.2H231ZM223.2 38.2C223.2 38.8 222.8 39.2 222.2 39.2H193.8C193.2 39.2 192.8 38.8 192.8 38.2V9.8C192.8 9.2 193.2 8.8 193.8 8.8H222.3C222.9 8.8 223.3 9.2 223.3 9.8V38.2H223.2Z" fill="#002244"/>
<path d="M177.309 101.606L173.929 102.512C173.349 102.668 173.066 103.158 173.222 103.737L173.662 105.379L171.054 106.078L170.614 104.436C170.458 103.857 169.968 103.574 169.389 103.729L165.236 104.843L164.355 101.559L166.094 101.093C166.673 100.938 166.956 100.448 166.801 99.868L164.366 90.7887C164.211 90.2092 163.721 89.9264 163.141 90.0818L147.301 94.329C146.721 94.4844 146.439 94.9744 146.594 95.5539L149.002 104.537C149.158 105.116 149.648 105.399 150.227 105.244L151.966 104.777L152.846 108.061L148.693 109.175C148.114 109.33 147.831 109.82 147.986 110.4L148.426 112.042L145.819 112.741L145.378 111.099C145.223 110.52 144.733 110.237 144.153 110.392L140.773 111.299C140.193 111.454 139.911 111.944 140.066 112.523L144.054 127.398C144.21 127.978 144.699 128.26 145.279 128.105L148.66 127.199C149.239 127.043 149.522 126.553 149.367 125.974L147.321 118.343L149.928 117.644L151.974 125.274C152.13 125.854 152.62 126.137 153.199 125.981L154.745 125.567L157.309 135.129L157.115 135.181C156.536 135.336 156.253 135.826 156.408 136.406L157.444 140.269C157.6 140.849 158.09 141.132 158.669 140.976L165.141 139.241C165.72 139.086 166.003 138.596 165.848 138.016L164.812 134.153C164.656 133.573 164.166 133.29 163.587 133.446L163.394 133.498L160.856 124.032L166.458 122.53L168.996 131.996L168.803 132.047C168.223 132.203 167.94 132.693 168.096 133.272L169.132 137.136C169.287 137.715 169.777 137.998 170.356 137.843L176.828 136.108C177.407 135.952 177.69 135.462 177.535 134.883L176.499 131.019C176.343 130.44 175.854 130.157 175.274 130.312L175.081 130.364L172.543 120.898L174.088 120.484C174.668 120.329 174.951 119.839 174.795 119.259L172.749 111.629L175.357 110.929L177.403 118.56C177.558 119.139 178.048 119.422 178.628 119.267L182.008 118.36C182.588 118.205 182.871 117.715 182.715 117.136L178.727 102.261C178.379 101.733 177.792 101.476 177.309 101.606ZM149.436 115.809L145.863 116.767C145.283 116.922 145 117.412 145.156 117.992L147.202 125.622L145.753 126.011L142.283 113.068L143.731 112.679L144.172 114.321C144.327 114.901 144.817 115.184 145.397 115.028L148.97 114.07L149.436 115.809ZM150.675 103.053L148.785 96.0018L162.693 92.2726L164.584 99.3235L150.675 103.053ZM162.397 101.98L163.278 105.264L154.778 107.543L153.898 104.259L162.397 101.98ZM163.56 137.594L159.021 138.811L158.503 136.88L163.042 135.663L163.56 137.594ZM159.144 134.637L156.606 125.172L158.827 124.576L161.365 134.042L159.144 134.637ZM175.247 134.461L170.708 135.678L170.19 133.746L174.729 132.529L175.247 134.461ZM170.831 131.504L168.293 122.038L170.514 121.442L173.052 130.908L170.831 131.504ZM169.381 107.562L172.411 118.863L153.673 123.887L150.203 110.944L169.038 105.894L169.478 107.536L169.381 107.562ZM180.331 116.739L178.883 117.128L176.837 109.497C176.681 108.918 176.191 108.635 175.612 108.791L172.038 109.749L171.572 108.01L175.146 107.052C175.725 106.897 176.008 106.407 175.853 105.827L175.412 104.185L176.861 103.797L180.331 116.739Z" fill="#002244"/>
<path d="M160.142 110.557C157.727 111.205 156.313 113.654 156.961 116.069C157.608 118.484 160.058 119.898 162.472 119.25C164.887 118.603 166.301 116.153 165.654 113.738C165.006 111.324 162.556 109.91 160.142 110.557ZM161.929 117.222C160.576 117.584 159.229 116.807 158.866 115.455C158.504 114.102 159.307 112.852 160.66 112.489C162.012 112.126 163.359 112.904 163.722 114.256C164.084 115.608 163.281 116.859 161.929 117.222Z" fill="#002244"/>
<path d="M30.1 31.9024C29.2 31.0024 28.1 30.6024 26.7 30.6024C24.6 30.6024 22.3 31.7024 20.5 33.5024C19.1 34.9024 18.1 36.7024 17.7 38.4024C17.3 40.3024 17.8 41.9024 18.9 43.1024C19.8 44.0024 20.9 44.4024 22.3 44.4024C24.4 44.4024 26.7 43.3024 28.5 41.5024C29.9 40.1024 30.9 38.3024 31.3 36.6024C31.7 34.7024 31.2 33.0024 30.1 31.9024ZM29.3 36.2024C29 37.6024 28.3 38.9024 27.1 40.1024C25.7 41.5024 23.9 42.4024 22.3 42.4024C19.6 42.3024 19.5 40.0024 19.7 38.8024C20 37.4024 20.7 36.1024 21.9 34.9024C23.3 33.5024 25.1 32.6024 26.7 32.6024C27.3 32.6024 30 32.9024 29.3 36.2024Z" fill="#002244"/>
<path d="M46.8 16.0024C45.5 14.5024 43.6 13.7024 41.6 14.1024C35.8 15.3024 30.5 18.1024 26.4 22.3024L21.4 27.3024L8.4 26.3024C8.1 26.3024 7.8 26.4024 7.6 26.6024L0.3 33.9024C0.1 34.1024 0 34.4024 0 34.8024C0.1 35.1024 0.3 35.4024 0.6 35.5024L9.8 38.8024L9.2 39.4024C7.8 40.8024 7.7 42.9024 8.8 44.5024L7.9 45.4024C6.3 47.0024 6.3 49.5024 7.9 51.1024L10.9 54.1024C11.7 54.9024 12.7 55.3024 13.7 55.3024C14.7 55.3024 15.8 54.9024 16.5 54.1024L17.4 53.2024C18.9 54.3024 21.1 54.1024 22.5 52.8024L23.1 52.2024L26.4 61.4024C26.5 61.7024 26.8 62.0024 27.1 62.0024C27.2 62.0024 27.2 62.0024 27.3 62.0024C27.6 62.0024 27.8 61.9024 28 61.7024L35.3 54.4024C35.5 54.2024 35.6 53.9024 35.6 53.6024L34.6 40.6024L39.6 35.6024C43.8 31.4024 46.6 26.1024 47.8 20.4024C48.2 18.8024 47.8 17.2024 46.8 16.0024ZM15.1 52.7024C14.3 53.5024 13 53.5024 12.3 52.7024L9.3 49.7024C8.5 48.9024 8.5 47.7024 9.3 46.9024L10.2 46.0024L16.1 51.9024L15.1 52.7024ZM38.3 34.2024L33 39.5024C32.8 39.7024 32.7 40.0024 32.7 40.3024L33.7 53.3024L27.8 59.2024L24.5 50.0024C24.4 49.7024 24.1 49.4024 23.8 49.4024C23.7 49.4024 23.7 49.4024 23.6 49.4024C23.3 49.4024 23.1 49.5024 22.9 49.7024L21.2 51.4024C20.5 52.1024 19.2 52.1024 18.5 51.4024L10.7 43.6024C9.9 42.8024 9.9 41.6024 10.7 40.9024L12.4 39.2024C12.6 39.0024 12.7 38.6024 12.7 38.3024C12.6 38.0024 12.4 37.7024 12.1 37.6024L2.9 34.3024L8.8 28.4024L21.8 29.4024C22.1 29.4024 22.4 29.3024 22.6 29.1024L27.9 23.8024C29.1 22.6024 30.5 21.5024 31.9 20.5024C32.9 25.3024 37 29.3024 41.7 30.3024C40.7 31.6024 39.6 33.0024 38.3 34.2024ZM45.9 20.0024C45.3 23.0024 44.2 25.8024 42.7 28.4024C38.2 27.8024 34.2 23.8024 33.5 19.3024C36.2 17.7024 39 16.7024 42 16.1024C43.2 15.9024 44.4 16.3024 45.2 17.3024C45.9 18.0024 46.1 19.0024 45.9 20.0024Z" fill="#002244"/>
</svg>
