<svg width="50" height="50" viewBox="0 0 50 50" fill="none" xmlns="http://www.w3.org/2000/svg">
<path d="M43.8 15.8H40.3C39.7 15.8 39.3 16.2 39.3 16.8V18.5H36.6V16.8C36.6 16.2 36.2 15.8 35.6 15.8H31.3V12.4H33.1C33.7 12.4 34.1 12 34.1 11.4V2C34.1 1.4 33.7 1 33.1 1H16.7C16.1 1 15.7 1.4 15.7 2V11.3C15.7 11.9 16.1 12.3 16.7 12.3H18.5V15.7H14.2C13.6 15.7 13.2 16.1 13.2 16.7V18.4H10.5V16.7C10.5 16.1 10.1 15.7 9.5 15.7H6C5.4 15.7 5 16.1 5 16.7V32.1C5 32.7 5.4 33.1 6 33.1H9.5C10.1 33.1 10.5 32.7 10.5 32.1V24.2H13.2V32.1C13.2 32.7 13.6 33.1 14.2 33.1H15.8V43H15.6C15 43 14.6 43.4 14.6 44V48C14.6 48.6 15 49 15.6 49H22.3C22.9 49 23.3 48.6 23.3 48V44C23.3 43.4 22.9 43 22.3 43H22.1V33.2H27.9V43H27.7C27.1 43 26.7 43.4 26.7 44V48C26.7 48.6 27.1 49 27.7 49H34.4C35 49 35.4 48.6 35.4 48V44C35.4 43.4 35 43 34.4 43H34.2V33.2H35.8C36.4 33.2 36.8 32.8 36.8 32.2V24.3H39.5V32.2C39.5 32.8 39.9 33.2 40.5 33.2H44C44.6 33.2 45 32.8 45 32.2V16.8C44.8 16.2 44.3 15.8 43.8 15.8ZM13.2 22.3H9.5C8.9 22.3 8.5 22.7 8.5 23.3V31.2H7V17.8H8.5V19.5C8.5 20.1 8.9 20.5 9.5 20.5H13.2V22.3ZM17.7 10.3V3H32.1V10.3H17.7ZM29.3 12.3V15.7H20.5V12.3H29.3ZM21.2 47H16.5V45H21.2V47ZM17.7 43V33.2H20V43H17.7ZM33.3 47H28.6V45H33.3V47ZM29.8 43V33.2H32.1V43H29.8ZM34.6 19.5V31.2H15.2V17.8H34.7V19.5H34.6ZM42.8 31.2H41.3V23.3C41.3 22.7 40.9 22.3 40.3 22.3H36.6V20.5H40.3C40.9 20.5 41.3 20.1 41.3 19.5V17.8H42.8V31.2Z" fill="#004477"/>
<path d="M24.9 20C22.4 20 20.4 22 20.4 24.5C20.4 27 22.4 29 24.9 29C27.4 29 29.4 27 29.4 24.5C29.4 22 27.4 20 24.9 20ZM24.9 26.9C23.5 26.9 22.4 25.8 22.4 24.4C22.4 23 23.5 22 24.9 22C26.3 22 27.4 23.1 27.4 24.5C27.4 25.9 26.3 26.9 24.9 26.9Z" fill="#004477"/>
</svg>
