<svg width="50" height="50" viewBox="0 0 50 50" fill="none" xmlns="http://www.w3.org/2000/svg">
<path d="M47.8188 13.945C47.7188 13.545 47.4188 13.145 46.9188 13.045C40.1188 12.145 33.9188 14.245 29.9188 18.645C27.3188 21.645 25.8188 25.645 25.6188 29.945C25.5188 29.845 25.5188 29.745 25.4188 29.645C22.3188 25.445 22.3188 18.545 25.4188 14.345C25.7188 13.945 25.6188 13.245 25.2188 12.945C24.8188 12.645 24.1188 12.745 23.8188 13.145C23.1188 14.045 22.6188 15.045 22.2188 16.145C21.9188 12.145 20.4188 8.64496 18.0188 5.84496C14.1188 1.34496 7.91879 -0.755044 1.01879 0.244956C0.618787 0.344956 0.318787 0.744956 0.218787 1.14496C-0.581213 7.14496 0.818787 12.645 4.31879 16.545C7.61879 20.345 12.5188 22.445 18.1188 22.445C19.1188 22.445 20.2188 22.345 21.2188 22.245C21.2188 25.445 22.1188 28.545 23.9188 30.945C27.0188 35.145 27.0188 42.045 23.9188 46.245C23.6188 46.645 23.7188 47.345 24.1188 47.645C24.3188 47.745 24.5188 47.845 24.7188 47.845C25.0188 47.845 25.3188 47.745 25.5188 47.445C28.0188 44.145 28.7188 39.345 27.8188 35.145C28.5188 35.245 29.2188 35.245 29.9188 35.245C35.5188 35.245 40.4188 33.145 43.7188 29.345C47.1188 25.345 48.6188 19.945 47.8188 13.945ZM18.1188 20.445C13.1188 20.445 8.81879 18.645 5.81879 15.245C2.91879 11.945 1.61879 7.34496 2.11879 2.14496C8.01879 1.54496 13.2188 3.44496 16.5188 7.24496C19.1188 10.245 20.4188 14.245 20.3188 18.645L10.8188 9.14496C10.4188 8.74496 9.81879 8.74496 9.41879 9.14496C9.01879 9.54496 9.01879 10.145 9.41879 10.545L19.2188 20.345C18.8188 20.345 18.4188 20.445 18.1188 20.445ZM42.2188 28.045C39.1188 31.545 34.4188 33.445 29.1188 33.145L37.9188 24.345C38.3188 23.945 38.3188 23.345 37.9188 22.945C37.5188 22.545 36.9188 22.545 36.5188 22.945L27.7188 31.745C27.5188 27.145 28.8188 23.045 31.5188 20.045C34.8188 16.245 40.0188 14.345 45.9188 14.945C46.4188 20.045 45.1188 24.645 42.2188 28.045Z" fill="#004477"/>
</svg>
