<svg width="50" height="50" viewBox="0 0 50 50" fill="none" xmlns="http://www.w3.org/2000/svg">
<path d="M24.7171 1C24.1171 1 23.5171 1 22.9171 1.1C15.9171 1.9 10.3171 7.2 9.21706 14.1C8.51706 18.5 9.51706 22.8 12.1171 26.2C15.1171 30.1 16.6171 34.6 16.6171 39V45C16.6171 47.2 18.4171 49 20.6171 49H28.8171C31.0171 49 32.8171 47.2 32.8171 45V39C32.8171 34.4 34.3171 30 37.0171 26.6C39.2171 23.8 40.5171 20.3 40.5171 16.7C40.5171 8.1 33.4171 1 24.7171 1ZM30.8171 45C30.8171 46.1 29.9171 47 28.8171 47H20.6171C19.5171 47 18.6171 46.1 18.6171 45V41H30.8171V45ZM35.5171 25.4C32.5171 29.1 30.9171 33.9 30.8171 38.9H25.8171C26.2171 34.7 27.3171 30.7 29.1171 27.5C30.4171 25.2 31.1171 22.4 31.1171 19.5C31.1171 18.9 30.7171 18.5 30.1171 18.5C29.5171 18.5 29.1171 18.9 29.1171 19.5C29.1171 22.1 28.5171 24.5 27.4171 26.6C26.3171 28.6 25.4171 30.9 24.8171 33.3C24.2171 30.9 23.3171 28.6 22.2171 26.6C21.1171 24.6 20.5171 22.1 20.5171 19.5C20.5171 18.9 20.1171 18.5 19.5171 18.5C18.9171 18.5 18.5171 18.9 18.5171 19.5C18.5171 22.5 19.2171 25.2 20.5171 27.5C22.3171 30.7 23.4171 34.7 23.8171 38.9H18.8171C18.8171 34.1 17.1171 29.3 13.9171 25C11.6171 22 10.7171 18.2 11.3171 14.4C12.3171 8.4 17.2171 3.7 23.3171 3C23.6171 3 24.2171 3 24.7171 3C32.3171 3 38.5171 9.2 38.5171 16.8C38.5171 20 37.4171 23 35.5171 25.4Z" fill="#004477"/>
</svg>
