<svg width="40" height="40" viewBox="0 0 40 40" fill="none" xmlns="http://www.w3.org/2000/svg">
<path d="M40 0H0V40H40V0Z" fill="#0084B1"/>
<path d="M9.41359 6.0751C11.2456 6.0766 12.7566 7.58977 12.7527 9.43094C12.7483 11.3588 11.1484 12.8119 9.39103 12.77C7.60858 12.8061 6.04213 11.3173 6.04248 9.41821C6.04248 7.57634 7.55934 6.0737 9.41359 6.0751Z" fill="white"/>
<path d="M11.3598 33.921H7.43459C6.92517 33.921 6.51221 33.5081 6.51221 32.9987V16.2535C6.51221 15.7441 6.92517 15.3311 7.43459 15.3311H11.3598C11.8692 15.3311 12.2822 15.7441 12.2822 16.2535V32.9987C12.2821 33.5081 11.8692 33.921 11.3598 33.921Z" fill="white"/>
<path d="M33.9569 21.2127C33.9569 17.7022 31.1111 14.8563 27.6005 14.8563H26.5938C24.6732 14.8563 22.9764 15.8146 21.9558 17.2793C21.8445 17.439 21.7414 17.6048 21.6468 17.7759C21.6141 17.771 21.5947 17.7685 21.5942 17.7694V15.7139C21.5942 15.5025 21.4228 15.331 21.2113 15.331H16.3141C16.1027 15.331 15.9312 15.5024 15.9312 15.7139V33.5382C15.9312 33.7497 16.1025 33.9211 16.3139 33.9212L21.3178 33.9224C21.5294 33.9225 21.7009 33.751 21.7009 33.5395V23.2419C21.7009 21.4619 23.1206 19.9839 24.9005 19.9638C25.8091 19.9535 26.6328 20.3176 27.2265 20.9117C27.8124 21.4972 28.1746 22.3068 28.1746 23.2006V33.5408C28.1746 33.7522 28.346 33.9236 28.5574 33.9237L33.5737 33.9249C33.7852 33.925 33.9567 33.7535 33.9567 33.542V21.2127H33.9569Z" fill="white"/>
</svg>
