<svg width="40" height="40" viewBox="0 0 40 40" fill="none" xmlns="http://www.w3.org/2000/svg">
<path d="M40 0H0V40H40V0Z" fill="#DC472E"/>
<path d="M23.1065 25.6059C23.1056 25.4567 23.0617 25.3014 23.0064 25.1618C22.9327 24.9784 22.7747 24.8871 22.5764 24.8678C22.3438 24.845 22.1577 24.9389 21.9892 25.0881C21.9216 25.1469 21.8909 25.2347 21.8909 25.2347L21.8944 29.9717V30.0884C21.8944 30.0884 21.9348 30.1428 21.9409 30.1499C22.0778 30.2982 22.2376 30.4158 22.4421 30.4579C22.7791 30.5273 23.017 30.3868 23.0828 30.0744C23.0995 29.9963 23.1091 29.9155 23.1091 29.8356C23.1109 28.4251 23.1135 27.0155 23.1065 25.6059ZM23.1065 25.6059C23.1056 25.4567 23.0617 25.3014 23.0064 25.1618C22.9327 24.9784 22.7747 24.8871 22.5764 24.8678C22.3438 24.845 22.1577 24.9389 21.9892 25.0881C21.9216 25.1469 21.8909 25.2347 21.8909 25.2347L21.8944 29.9717V30.0884C21.8944 30.0884 21.9348 30.1428 21.9409 30.1499C22.0778 30.2982 22.2376 30.4158 22.4421 30.4579C22.7791 30.5273 23.017 30.3868 23.0828 30.0744C23.0995 29.9963 23.1091 29.9155 23.1091 29.8356C23.1109 28.4251 23.1135 27.0155 23.1065 25.6059ZM28.4105 18.4623C22.8046 18.342 17.196 18.342 11.5892 18.4623C9.64417 18.5035 8.08887 20.0939 8.08887 22.0398V30.7958C8.08887 32.7426 9.64417 34.333 11.5892 34.3743C17.196 34.4945 22.8046 34.4945 28.4105 34.3743C30.3564 34.333 31.9117 32.7426 31.9117 30.7958V22.0398C31.9117 20.094 30.3564 18.5035 28.4105 18.4623ZM13.2358 31.5938H11.619V22.4542H9.94523V20.9252H14.9131V22.4507H13.2358V31.5938V31.5938ZM19.0216 27.8002V31.5946H17.5901V30.7274C17.5383 30.7827 17.5093 30.8125 17.4821 30.8432C17.1741 31.1908 16.8247 31.4805 16.3788 31.6341C16.1612 31.7087 15.9374 31.7341 15.7083 31.6946C15.3958 31.6428 15.186 31.4629 15.0596 31.1785C14.942 30.9161 14.9122 30.6352 14.9113 30.3526C14.9078 29.3081 14.9096 23.7803 14.9096 23.7268H16.3376C16.3402 23.775 16.3455 27.7432 16.3464 29.6785C16.3464 29.7838 16.3472 29.8918 16.3683 29.9945C16.421 30.2543 16.6202 30.3658 16.8704 30.2745C17.1583 30.1692 17.3777 29.9708 17.562 29.7329C17.5892 29.6987 17.5892 29.6373 17.5892 29.5881V23.718L19.0216 23.7145C19.0216 23.7146 19.0216 26.4854 19.0216 27.8002ZM24.4678 30.8362C24.2765 31.412 23.8552 31.7052 23.2496 31.699C22.7572 31.6946 22.3578 31.4989 22.0287 31.1417C21.9918 31.1022 21.89 30.9942 21.89 30.9942V31.5928H20.4558V20.9242H21.89C21.89 22.06 21.89 24.436 21.89 24.436C21.89 24.436 21.9707 24.2745 22.0445 24.1911C22.2665 23.9427 22.5369 23.7505 22.8704 23.6662C23.4207 23.5284 24.0553 23.6987 24.3572 24.342C24.5354 24.7221 24.5854 25.1276 24.5854 25.5401C24.5881 27.0313 24.5881 28.5226 24.5863 30.0138C24.5854 30.2929 24.5565 30.5686 24.4678 30.8362ZM29.7648 30.5361C29.5164 31.2638 29.003 31.6675 28.2499 31.7781C27.7829 31.8466 27.3204 31.8369 26.8824 31.6385C26.2829 31.3682 25.9433 30.8793 25.7976 30.257C25.73 29.9674 25.6966 29.6637 25.6931 29.3661C25.6817 28.1979 25.687 27.0288 25.6896 25.8606C25.6905 25.2497 25.8362 24.6862 26.2548 24.2184C26.7323 23.6838 27.3432 23.4846 28.041 23.5294C28.2508 23.5425 28.4649 23.5768 28.6642 23.6426C29.3426 23.8655 29.7051 24.3737 29.8473 25.0478C29.9017 25.3076 29.9219 25.5771 29.9263 25.843C29.9377 26.4662 29.9219 27.8398 29.9219 27.8398H27.1756V29.8085C27.1756 30.1622 27.4617 30.4484 27.8154 30.4484C28.1683 30.4484 28.4544 30.1622 28.4544 29.8085V28.7965H29.9298C29.9298 28.7964 29.9518 29.9911 29.7648 30.5361ZM28.4544 25.5139C28.4544 25.161 28.1683 24.874 27.8154 24.874C27.4617 24.874 27.1756 25.161 27.1756 25.5139V26.6189H28.4544V25.5139ZM23.0064 25.1619C22.9327 24.9785 22.7747 24.8872 22.5764 24.8679C22.3438 24.8451 22.1577 24.939 21.9892 25.0882C21.9216 25.147 21.8909 25.2348 21.8909 25.2348L21.8944 29.9718V30.0885C21.8944 30.0885 21.9348 30.1429 21.9409 30.1499C22.0778 30.2983 22.2376 30.4159 22.4421 30.458C22.7791 30.5274 23.017 30.3869 23.0828 30.0745C23.0995 29.9963 23.1091 29.9156 23.1091 29.8357C23.1109 28.4252 23.1135 27.0156 23.1065 25.606C23.1056 25.4567 23.0617 25.3014 23.0064 25.1619Z" fill="white"/>
<path d="M26.6725 8.33765L26.6721 16.2585H25.2044L25.2061 15.4075C25.0438 15.5674 24.9053 15.7167 24.7531 15.8508C24.4833 16.0885 24.1777 16.2657 23.8202 16.3356C23.2714 16.443 22.8039 16.2694 22.6289 15.701C22.5706 15.5117 22.5354 15.3076 22.5339 15.11V8.33765H23.9906V14.3781C23.9906 14.4582 23.997 14.5391 24.011 14.6176C24.0553 14.8665 24.2392 14.9837 24.4789 14.9006C24.7711 14.7994 24.9941 14.5971 25.1832 14.3587C25.2101 14.3247 25.2053 14.2611 25.2053 14.2112V8.33765H26.6725Z" fill="white"/>
<path d="M14.533 9.71397C14.2144 8.37098 13.5469 5.53589 13.5469 5.53589H11.8767C11.8767 5.53589 13.1599 9.79165 13.7338 11.6896C13.7544 11.7582 13.7639 11.8328 13.7639 11.9046L13.7633 16.2567H15.3034L15.3028 11.9046C15.3028 11.8328 15.3122 11.7582 15.3329 11.6896C15.9067 9.79165 17.1899 5.53589 17.1899 5.53589H15.5197C15.5197 5.53589 14.8521 8.37098 14.5336 9.71397H14.533Z" fill="white"/>
<path d="M19.2001 8.1394C18.0394 8.1394 17.0985 9.08031 17.0985 10.241V14.3539C17.0985 15.5145 18.0394 16.4554 19.2001 16.4554C20.3608 16.4554 21.3017 15.5145 21.3017 14.3539V10.241C21.3018 9.08031 20.3608 8.1394 19.2001 8.1394ZM19.8066 14.4369C19.8066 14.7713 19.5345 15.0433 19.2002 15.0433C18.8659 15.0433 18.5938 14.7713 18.5938 14.4369V10.1579C18.5938 9.82347 18.8659 9.55146 19.2002 9.55146C19.5345 9.55146 19.8066 9.82355 19.8066 10.1579V14.4369Z" fill="white"/>
</svg>
